#N canvas 1580 203 1440 804 12;
#X obj 45 7 inlet;
#X floatatom 45 223 5 0 0 0 - - -;
#X floatatom 682 178 5 0 0 0 - - -;
#X obj 44 1009 outlet~ signal;
#X obj 657 979 \$0;
#X obj 656 939 loadbang;
#X floatatom 657 1002 5 0 0 3 #0 - -;
#X obj 712 980 \$1;
#X floatatom 712 1003 5 0 0 3 #1 - -;
#X obj 44 716 *~;
#X obj 45 160 unpack f f, f 11;
#X obj 65 30 inlet last_note;
#X floatatom 65 53 5 0 0 0 - - -;
#X obj 212 31 inlet slide;
#X obj 682 694 +~;
#X obj 232 55 inlet slide_pow;
#X obj 175 429 bng 15 250 50 0 empty \$0-b00 \$0-phase-bang 17 7 0
10 -262144 -1 -1;
#X obj 499 32 inlet slide;
#X obj 519 56 inlet slide_pow;
#X text 243 75 voice-1;
#X obj 244 96 inlet voice-(1);
#X obj 264 118 inlet voice-vol-(1);
#N canvas 0 23 560 300 triangelVoice(1) 0;
#X obj 145 194 *~;
#X obj 210 132 hsl 128 15 0 1 0 0 empty empty volume 2 8 0 10 -262144
-1 -1 12700 1;
#X obj 207 151 pack \$1 30;
#X obj 207 175 line~;
#X obj 168 14 inlet voiceNr;
#X obj 275 13 inlet voiceVol;
#X obj 391 12 inlet phaseBng;
#X obj 145 246 outlet~ Stream~;
#N canvas 417 79 450 432 triangle 0;
#X obj 41 82 phasor~;
#X obj 81 236 +~;
#X obj 131 134 *~ -1;
#X obj 131 162 +~ 1;
#X obj 131 190 clip~ 0 0.5;
#X obj 41 190 clip~ 0 0.5;
#X obj 81 260 *~ 4;
#X obj 81 284 -~ 3;
#X obj 85 348 outlet~ stream;
#X obj 182 31 inlet phase;
#X msg 182 55 0.25;
#X obj 41 37 inlet~ note;
#X connect 0 0 2 0;
#X connect 0 0 5 0;
#X connect 1 0 6 0;
#X connect 2 0 3 0;
#X connect 3 0 4 0;
#X connect 4 0 1 0;
#X connect 5 0 1 1;
#X connect 6 0 7 0;
#X connect 7 0 8 0;
#X connect 9 0 10 0;
#X connect 10 0 0 1;
#X connect 11 0 0 0;
#X restore 143 101 pd triangle;
#X obj 42 15 inlet~ note-frq~;
#X obj 144 56 *~ 1;
#X obj 319 244 outlet~;
#N canvas 201 109 968 580 stringVoice 0;
#X obj 58 252 phasor~;
#X obj 58 366 expr~ $v1 > $v2, f 39;
#X obj 327 163 *~ 0.4;
#X obj 327 187 +~ 0.5;
#X obj 90 183 +~;
#X text 137 181 vibrato;
#X obj 66 448 outlet~;
#X obj 148 82 osc~ 4;
#X obj 327 139 osc~ 2.1;
#X obj 148 136 *~ 4;
#X obj 494 22 loadbang;
#X obj 494 46 random 1000;
#X obj 494 70 * 0.002;
#X obj 494 94 + 1;
#X obj 494 118 print stringVoice\$0:;
#X obj 204 32 loadbang;
#X obj 204 56 random 1000;
#X obj 204 104 + 1;
#X obj 204 80 * 0.005;
#X obj 98 21 inlet~;
#X connect 0 0 1 0;
#X connect 1 0 6 0;
#X connect 2 0 3 0;
#X connect 3 0 1 1;
#X connect 4 0 0 0;
#X connect 7 0 9 0;
#X connect 8 0 2 0;
#X connect 10 0 11 0;
#X connect 11 0 12 0;
#X connect 12 0 13 0;
#X connect 13 0 14 0;
#X connect 13 0 8 1;
#X connect 15 0 16 0;
#X connect 16 0 18 0;
#X connect 17 0 7 1;
#X connect 18 0 17 0;
#X connect 19 0 4 0;
#X restore 109 132 pd stringVoice;
#X connect 0 0 7 0;
#X connect 1 0 2 0;
#X connect 2 0 3 0;
#X connect 3 0 0 1;
#X connect 4 0 10 1;
#X connect 5 0 1 0;
#X connect 6 0 8 1;
#X connect 9 0 10 0;
#X connect 10 0 11 0;
#X connect 10 0 12 0;
#X connect 12 0 0 0;
#X restore 45 452 pd triangelVoice(1);
#X text 210 8 slide-last-note (1);
#X text 493 7 slide-last-note (2);
#X obj 390 431 bng 15 250 50 0 empty \$0-b00 \$0-phase-bang 17 7 0
10 -262144 -1 -1;
#X obj 533 95 inlet voice-(2);
#X obj 553 117 inlet voice-vol-(2);
#N canvas 2120 154 767 686 slide-last-note(2) 0;
#X obj 48 224 mtof;
#X floatatom 48 147 5 0 0 0 - - -;
#X obj 49 579 line~;
#X obj 48 283 pack f f;
#X floatatom 362 75 5 0 0 0 - - -;
#X obj 48 70 t f b;
#X obj 48 123 spigot;
#X obj 85 98 tgl 15 0 empty empty empty 17 7 0 10 -262144 -1 -1 0 1
;
#X obj 48 251 expr pow($f1 \, (1/$f2));
#X obj 49 600 pow~ 1;
#X floatatom 493 209 5 0 0 0 - - -;
#X obj 190 328 expr pow($f1 \, (1/$f2));
#X obj 48 29 inlet midi_note;
#X obj 362 33 inlet slide_time;
#X obj 511 32 inlet slide_pow;
#X obj 208 29 inlet slide_from;
#X obj 49 623 outlet~ stream;
#X text 448 503 slide-modul: macht einen notensprung vor dem ton \,
man kann einstellen mit welcher zeit und mit welchem pow \, (1 ist
linear) außerdemo von wo (slide_from);
#X obj 190 280 f;
#X obj 190 303 mtof;
#X obj 48 168 t f b b;
#X obj 647 93 loadbang;
#X msg 647 116 1;
#X obj 493 182 f;
#X connect 0 0 8 0;
#X connect 1 0 20 0;
#X connect 2 0 9 0;
#X connect 3 0 2 0;
#X connect 4 0 3 1;
#X connect 5 0 6 0;
#X connect 5 1 7 0;
#X connect 6 0 1 0;
#X connect 7 0 6 1;
#X connect 8 0 3 0;
#X connect 9 0 16 0;
#X connect 10 0 8 1;
#X connect 10 0 9 1;
#X connect 10 0 11 1;
#X connect 11 0 2 0;
#X connect 12 0 5 0;
#X connect 13 0 4 0;
#X connect 14 0 23 1;
#X connect 15 0 18 1;
#X connect 18 0 19 0;
#X connect 19 0 11 0;
#X connect 20 0 0 0;
#X connect 20 1 18 0;
#X connect 20 2 23 0;
#X connect 21 0 22 0;
#X connect 22 0 10 0;
#X connect 23 0 10 0;
#X restore 451 393 pd slide-last-note(2);
#N canvas 2120 154 767 686 slide-last-note(1) 0;
#X obj 48 224 mtof;
#X floatatom 48 147 5 0 0 0 - - -;
#X obj 48 283 pack f f;
#X floatatom 362 75 5 0 0 0 - - -;
#X obj 48 251 expr pow($f1 \, (1/$f2));
#X floatatom 493 209 5 0 0 0 - - -;
#X obj 190 328 expr pow($f1 \, (1/$f2));
#X obj 48 29 inlet midi_note;
#X obj 362 33 inlet slide_time;
#X obj 511 32 inlet slide_pow;
#X obj 208 29 inlet slide_from;
#X text 448 503 slide-modul: macht einen notensprung vor dem ton \,
man kann einstellen mit welcher zeit und mit welchem pow \, (1 ist
linear) außerdemo von wo (slide_from);
#X obj 190 280 f;
#X obj 190 303 mtof;
#X obj 48 168 t f b b;
#X obj 647 93 loadbang;
#X msg 647 116 1;
#X obj 493 182 f;
#X msg 178 381 \$1 0;
#X obj 49 579 line~;
#X obj 49 600 pow~ 1;
#X obj 49 623 outlet~ midi_frq;
#N canvas 0 23 450 300 just-one 0;
#X obj 48 70 t f b;
#X obj 48 119 spigot;
#X obj 87 98 tgl 15 0 empty empty empty 17 7 0 10 -262144 -1 -1 0 1
;
#X obj 48 36 inlet;
#X obj 48 176 outlet;
#X text 182 57 fängt doppelte midi eingabe ab aber muss auch richtig
ausgelöst werden;
#X obj 145 104 bng 15 250 50 0 empty \$0-last_bng empty 17 7 0 10 -262144
-1 -1;
#X msg 145 124 0;
#X connect 0 0 1 0;
#X connect 0 1 2 0;
#X connect 1 0 4 0;
#X connect 2 0 1 1;
#X connect 3 0 0 0;
#X connect 6 0 7 0;
#X connect 7 0 2 0;
#X restore 48 90 pd just-one;
#X connect 0 0 4 0;
#X connect 1 0 14 0;
#X connect 2 0 19 0;
#X connect 3 0 2 1;
#X connect 4 0 2 0;
#X connect 5 0 4 1;
#X connect 5 0 6 1;
#X connect 5 0 20 1;
#X connect 6 0 18 0;
#X connect 7 0 22 0;
#X connect 8 0 3 0;
#X connect 9 0 17 1;
#X connect 10 0 12 1;
#X connect 12 0 13 0;
#X connect 13 0 6 0;
#X connect 14 0 0 0;
#X connect 14 1 12 0;
#X connect 14 2 17 0;
#X connect 15 0 16 0;
#X connect 16 0 5 0;
#X connect 17 0 5 0;
#X connect 18 0 19 0;
#X connect 19 0 20 0;
#X connect 20 0 21 0;
#X connect 22 0 1 0;
#X restore 45 252 pd slide-last-note(1);
#X text 532 75 voice-2;
#X obj 748 29 inlet atk_time;
#X obj 821 138 inlet rls_time;
#X obj 774 71 inlet dcy_time;
#X obj 804 116 inlet stn level;
#X obj 760 50 inlet atk-pow;
#X obj 839 160 inlet rls-pow;
#X obj 789 93 inlet dcy-pow;
#X text 745 7 adr-pow;
#N canvas 0 23 450 300 lo-entferner 0;
#X obj 185 113 hip~ 7;
#X obj 182 43 inlet~;
#X obj 183 215 outlet~;
#X obj 185 136 hip~ 10;
#X connect 0 0 3 0;
#X connect 1 0 0 0;
#X connect 3 0 2 0;
#X restore 44 916 pd lo-entferner;
#N canvas 336 113 574 412 switch 0;
#X obj 16 16 inlet~ streamlast-point;
#X msg 245 178 1;
#X obj 136 174 env~;
#X obj 176 227 metro 20;
#X obj 176 251 snapshot~;
#X obj 249 281 expr if($f1 == 0 \, 0 \, 1);
#X msg 312 242 0;
#X obj 176 175 delay;
#X obj 312 177 sel 0;
#X msg 176 202 1;
#X floatatom 222 109 5 0 0 0 - - -;
#X obj 201 79 t b f;
#X obj 202 21 inlet time_for_metro_and_start;
#X obj 251 366 outlet switch_toggle;
#X obj 312 207 t b b;
#X obj 413 365 outlet last_bang;
#X obj 245 157 bng 15 250 50 0 empty \$0-b00 \$0-phase-bang 17 7 0
10 -262144 -1 -1;
#X connect 0 0 2 0;
#X connect 1 0 13 0;
#X connect 2 0 4 0;
#X connect 3 0 4 0;
#X connect 4 0 5 0;
#X connect 5 0 8 0;
#X connect 6 0 3 0;
#X connect 6 0 13 0;
#X connect 7 0 9 0;
#X connect 8 0 14 0;
#X connect 9 0 3 0;
#X connect 10 0 7 1;
#X connect 11 0 7 0;
#X connect 11 1 10 0;
#X connect 12 0 11 0;
#X connect 14 0 6 0;
#X connect 14 1 15 0;
#X connect 16 0 1 0;
#X restore 781 933 pd switch;
#X obj 781 982 switch~;
#X obj 781 963 tgl 15 0 empty empty empty 17 7 0 10 -262144 -1 -1 0
1;
#X obj 1095 76 inlet lfophase;
#X obj 60 816 bng 15 250 50 0 empty \$0-b00 \$0-phase-bang 17 7 0 10
-262144 -1 -1;
#X obj 1060 54 inlet lfo-frq;
#N canvas 0 23 1440 706 env-adr-pow 0;
#X obj 429 751 outlet~;
#X obj 20 28 / 127;
#X floatatom 20 51 5 0 0 0 - - -;
#X obj 119 13 inlet atk_time;
#X obj 20 73 sel 0;
#X obj 860 14 inlet rls_time;
#X obj 436 264 f;
#X obj 471 13 inlet dcy_time;
#X obj 716 10 inlet stn level;
#X obj 436 181 delay;
#X obj 436 155 bng 15 250 50 0 empty empty empty 17 7 0 10 -262144
-1 -1;
#X obj 776 92 bng 15 250 50 0 empty empty rls_start 17 7 0 10 -262144
-1 -1;
#X floatatom 717 111 5 0 0 0 - - -;
#X obj 649 197 *;
#X floatatom 649 220 5 0 0 0 - - -;
#X obj 436 354 expr pow($f1 \, (1/$f2));
#X obj 436 287 t f b;
#X obj 430 713 +~;
#X floatatom 471 36 5 0 0 0 - - -;
#X floatatom 119 47 5 0 0 0 - - -;
#X floatatom 860 37 5 0 0 0 - - -;
#X obj 775 520 snapshot~;
#X obj 842 285 expr pow($f1 \, (1/$f2));
#X obj 919 583 pow~ 1;
#X obj 50 583 line~;
#X msg 85 557 0 0;
#X floatatom 50 339 5 0 0 0 - - -;
#X obj 50 445 pack \$1 \$2;
#X obj 50 420 expr pow($f1 \, (1/$f2));
#X obj 50 606 pow~ 1;
#X msg 485 545 0 0;
#X obj 436 584 line~;
#X obj 436 377 t f b b;
#X obj 436 461 pack \$1 \$2;
#X obj 919 530 line~;
#X msg 842 322 \$1 0;
#X obj 842 400 f;
#X obj 842 347 t b l b;
#X msg 842 423 0 \$1;
#X msg 382 506 \$1 0;
#X obj 316 435 expr pow($f1 \, (1/$f2));
#X obj 382 480 f;
#X msg 674 736 0 0;
#X obj 436 210 bng 15 250 50 0 empty empty empty 17 7 0 10 -262144
-1 -1;
#X obj 436 230 spigot;
#X msg 475 208 1;
#X obj 52 96 t f b b b;
#X msg 517 208 0;
#X obj 776 112 t b b;
#X obj 20 5 inlet velo127;
#X obj 201 379 f 1;
#X obj 50 361 t f b;
#X obj 50 471 t l b;
#X obj 82 494 bng 15 250 50 0 \$0-b00 empty \$0-b00 17 7 0 10 -262144
-1 -1;
#X obj 588 303 f 1;
#X obj 316 338 t f b;
#X text 615 305 dcy-pow;
#X text 228 376 atk-pow;
#X text 485 232 turn decay on off;
#X text 774 542 where to start the release;
#X obj 485 520 bng 15 250 50 0 empty rls-all-notfall rls-all-notfall
17 7 0 10 -262144 -1 -1;
#X obj 85 530 bng 15 250 50 0 empty rls-all-notfall rls-all-notfall
17 7 0 10 -262144 -1 -1;
#X obj 985 477 bng 15 250 50 0 empty rls-all-notfall rls-all-notfall
17 7 0 10 -262144 -1 -1;
#X msg 985 497 0 0;
#X obj 436 607 pow~ 1;
#X obj 996 541 f 1;
#X obj 232 14 inlet atk-pow;
#X obj 223 43 expr if($f1 < 0.007 \, 0.007 \, $f1);
#X text 1098 66 safty-the=pow == 0 is bad;
#X obj 1047 43 expr if($f1 < 0.007 \, 0.007 \, $f1);
#X obj 1047 14 inlet rls-pow;
#X obj 517 37 expr if($f1 < 0.007 \, 0.007 \, $f1);
#X obj 586 14 inlet dcy-pow;
#X obj 1095 734 outlet time-to-release;
#X obj 1095 710 f;
#X connect 1 0 2 0;
#X connect 2 0 4 0;
#X connect 3 0 19 0;
#X connect 4 0 11 0;
#X connect 4 1 46 0;
#X connect 5 0 20 0;
#X connect 6 0 16 0;
#X connect 7 0 18 0;
#X connect 8 0 12 0;
#X connect 9 0 43 0;
#X connect 10 0 9 0;
#X connect 11 0 48 0;
#X connect 12 0 13 1;
#X connect 13 0 14 0;
#X connect 14 0 6 1;
#X connect 15 0 32 0;
#X connect 16 0 15 0;
#X connect 16 1 54 0;
#X connect 17 0 21 0;
#X connect 17 0 0 0;
#X connect 18 0 33 1;
#X connect 19 0 9 1;
#X connect 19 0 27 1;
#X connect 20 0 36 1;
#X connect 20 0 74 1;
#X connect 21 0 22 0;
#X connect 22 0 35 0;
#X connect 23 0 17 0;
#X connect 24 0 29 0;
#X connect 25 0 24 0;
#X connect 26 0 51 0;
#X connect 27 0 52 0;
#X connect 28 0 27 0;
#X connect 29 0 17 0;
#X connect 30 0 31 0;
#X connect 31 0 64 0;
#X connect 32 0 33 0;
#X connect 32 1 25 0;
#X connect 32 2 41 0;
#X connect 33 0 31 0;
#X connect 34 0 23 0;
#X connect 35 0 37 0;
#X connect 36 0 38 0;
#X connect 37 0 36 0;
#X connect 37 1 34 0;
#X connect 37 2 30 0;
#X connect 37 2 25 0;
#X connect 37 2 65 0;
#X connect 38 0 34 0;
#X connect 39 0 31 0;
#X connect 40 0 41 1;
#X connect 41 0 39 0;
#X connect 42 0 34 0;
#X connect 42 0 31 0;
#X connect 42 0 24 0;
#X connect 43 0 44 0;
#X connect 44 0 6 0;
#X connect 45 0 44 1;
#X connect 46 0 26 0;
#X connect 46 0 13 0;
#X connect 46 0 55 0;
#X connect 46 2 10 0;
#X connect 46 3 45 0;
#X connect 47 0 44 1;
#X connect 48 0 21 0;
#X connect 48 0 74 0;
#X connect 48 1 47 0;
#X connect 49 0 1 0;
#X connect 50 0 28 1;
#X connect 50 0 29 1;
#X connect 51 0 28 0;
#X connect 51 1 50 0;
#X connect 52 0 24 0;
#X connect 52 1 53 0;
#X connect 54 0 40 1;
#X connect 54 0 15 1;
#X connect 54 0 64 1;
#X connect 55 0 40 0;
#X connect 55 1 54 0;
#X connect 60 0 30 0;
#X connect 61 0 25 0;
#X connect 62 0 63 0;
#X connect 63 0 34 0;
#X connect 64 0 17 0;
#X connect 65 0 23 1;
#X connect 66 0 67 0;
#X connect 67 0 50 1;
#X connect 69 0 22 1;
#X connect 69 0 65 1;
#X connect 70 0 69 0;
#X connect 71 0 54 1;
#X connect 72 0 71 0;
#X connect 74 0 73 0;
#X restore 683 364 pd env-adr-pow;
#X f 23;
#X obj 1108 98 inlet dly-time;
#X obj 1121 122 inlet atk-lvl;
#X obj 1139 144 inlet atk_time;
#X obj 1272 318 inlet rls_time;
#X obj 1185 191 inlet dcy_time;
#X obj 1171 170 inlet atk-pow;
#X obj 1290 340 inlet rls-pow;
#X obj 1200 213 inlet dcy-pow;
#X obj 1215 236 inlet stn-lvl;
#X obj 1252 290 inlet stn-time;
#X obj 1237 264 inlet stn-frvr;
#X obj 841 963 bng 15 250 50 0 \$0-last_bng empty lst_bng 17 7 0 10
-262144 -1 -1;
#N canvas 1694 45 1394 674 lfo_vol-(0) 0;
#X obj 531 63 inlet lfophase;
#N canvas 0 23 589 484 dry_wet~ 0;
#X obj 40 392 *~;
#X obj 106 328 *~;
#X obj 58 366 expr~ (1 - $v1);
#X obj 124 293 +~;
#X obj 106 214 *~;
#X obj 38 21 inlet~ stream~;
#X text 131 217 hier das neue signal;
#X obj 381 24 inlet~ dry_wet~;
#X obj 40 450 outlet~ stream;
#X obj 179 21 inlet~ signal_input;
#X text 183 42 hier das neue signal;
#X connect 0 0 8 0;
#X connect 1 0 8 0;
#X connect 2 0 0 1;
#X connect 3 0 1 1;
#X connect 3 0 2 0;
#X connect 4 0 1 0;
#X connect 5 0 0 0;
#X connect 5 0 4 0;
#X connect 7 0 3 1;
#X connect 9 0 4 1;
#X restore 30 544 pd dry_wet~;
#N canvas 445 248 627 445 lfo 0;
#X obj 50 28 inlet lfo-frq;
#X obj 355 24 inlet lfo-phase;
#X obj 241 24 inlet trigger;
#X obj 51 214 osc~;
#X obj 51 238 /~ 2;
#X obj 51 262 +~ 0.5;
#X obj 145 196 f;
#X floatatom 51 168 5 0 0 0 - - -;
#X obj 52 401 outlet~ lfo;
#X connect 0 0 7 0;
#X connect 1 0 6 1;
#X connect 2 0 6 0;
#X connect 3 0 4 0;
#X connect 4 0 5 0;
#X connect 5 0 8 0;
#X connect 6 0 3 1;
#X connect 7 0 3 0;
#X restore 117 401 pd lfo;
#X obj 496 35 inlet lfo-frq;
#X obj 547 92 inlet dly-time;
#X obj 560 116 inlet atk-lvl;
#X obj 578 138 inlet atk_time;
#X obj 711 312 inlet rls_time;
#X obj 624 185 inlet dcy_time;
#X obj 610 164 inlet atk-pow;
#X obj 729 334 inlet rls-pow;
#X obj 639 207 inlet dcy-pow;
#N canvas 0 23 1440 800 env-adr-pow 0;
#X obj 519 751 outlet~;
#X obj 1070 14 inlet rls_time;
#X obj 526 264 f;
#X obj 581 13 inlet dcy_time;
#X obj 526 171 delay;
#X obj 494 125 bng 15 250 50 0 empty empty empty 17 7 0 10 -262144
-1 -1;
#X obj 936 122 bng 15 250 50 0 empty empty rls_start 17 7 0 10 -262144
-1 -1;
#X floatatom 807 111 5 0 0 0 - - -;
#X obj 526 354 expr pow($f1 \, (1/$f2));
#X obj 526 287 t f b;
#X obj 520 713 +~;
#X floatatom 581 36 5 0 0 0 - - -;
#X floatatom 239 47 5 0 0 0 - - -;
#X floatatom 1070 37 5 0 0 0 - - -;
#X obj 985 520 snapshot~;
#X obj 1052 285 expr pow($f1 \, (1/$f2));
#X obj 1129 583 pow~ 1;
#X obj 170 583 line~;
#X msg 205 557 0 0;
#X floatatom 170 339 5 0 0 0 - - -;
#X obj 170 445 pack \$1 \$2;
#X obj 170 420 expr pow($f1 \, (1/$f2));
#X obj 170 606 pow~ 1;
#X msg 575 545 0 0;
#X obj 526 584 line~;
#X obj 526 377 t f b b;
#X obj 526 461 pack \$1 \$2;
#X obj 1129 530 line~;
#X msg 1052 322 \$1 0;
#X obj 1052 400 f;
#X obj 1052 347 t b l b;
#X msg 1052 423 0 \$1;
#X msg 472 506 \$1 0;
#X obj 406 435 expr pow($f1 \, (1/$f2));
#X obj 472 480 f;
#X msg 764 736 0 0;
#X obj 526 210 bng 15 250 50 0 empty empty empty 17 7 0 10 -262144
-1 -1;
#X obj 526 230 spigot;
#X msg 565 208 1;
#X obj 172 106 t f b b b;
#X msg 607 208 0;
#X obj 936 142 t b b;
#X obj 321 379 f 1;
#X obj 170 361 t f b;
#X obj 678 303 f 1;
#X obj 406 338 t f b;
#X text 705 305 dcy-pow;
#X text 348 376 atk-pow;
#X text 575 232 turn decay on off;
#X text 984 542 where to start the release;
#X obj 575 520 bng 15 250 50 0 empty rls-all-notfall rls-all-notfall
17 7 0 10 -262144 -1 -1;
#X obj 205 530 bng 15 250 50 0 empty rls-all-notfall rls-all-notfall
17 7 0 10 -262144 -1 -1;
#X obj 1195 477 bng 15 250 50 0 empty rls-all-notfall rls-all-notfall
17 7 0 10 -262144 -1 -1;
#X msg 1195 497 0 0;
#X obj 526 607 pow~ 1;
#X obj 1206 541 f 1;
#X obj 352 14 inlet atk-pow;
#X obj 343 43 expr if($f1 < 0.007 \, 0.007 \, $f1);
#X text 1258 66 safty-the=pow == 0 is bad;
#X obj 1207 43 expr if($f1 < 0.007 \, 0.007 \, $f1);
#X obj 1207 14 inlet rls-pow;
#X obj 637 37 expr if($f1 < 0.007 \, 0.007 \, $f1);
#X obj 706 14 inlet dcy-pow;
#X obj 1275 734 outlet time-to-release;
#X obj 1275 710 f;
#X obj 140 3 inlet atk-lvl;
#X obj 47 26 inlet dly-time;
#X obj 122 73 f;
#X obj 8 5 inlet trigger;
#X obj 38 97 delay;
#X obj 494 145 t b b;
#X obj 806 10 inlet stn-lvl;
#X obj 239 13 inlet atk-time;
#X obj 921 85 delay;
#X obj 951 10 inlet stn-time;
#X obj 10 47 t b b;
#X obj 881 35 inlet stn-frvr;
#X obj 862 203 spigot;
#X obj 881 58 sel 0;
#X msg 861 84 1;
#X msg 879 112 0;
#X obj 897 84 bng 15 250 50 0 empty empty empty 17 7 0 10 -262144 -1
-1;
#X obj 897 181 tgl 15 0 empty empty empty 17 7 0 10 -262144 -1 -1 0
1;
#X obj 839 489 bng 15 250 50 0 empty \$0-last_bng lst_bgn 17 7 0 10
-262144 -1 -1;
#X msg 1041 475 0 0;
#X msg 1078 510 0 0;
#X connect 1 0 13 0;
#X connect 2 0 9 0;
#X connect 3 0 11 0;
#X connect 4 0 36 0;
#X connect 4 0 77 0;
#X connect 5 0 70 0;
#X connect 6 0 41 0;
#X connect 7 0 2 1;
#X connect 8 0 25 0;
#X connect 9 0 8 0;
#X connect 9 1 44 0;
#X connect 10 0 14 0;
#X connect 10 0 0 0;
#X connect 11 0 26 1;
#X connect 12 0 4 1;
#X connect 12 0 20 1;
#X connect 13 0 29 1;
#X connect 13 0 64 1;
#X connect 14 0 15 0;
#X connect 15 0 28 0;
#X connect 16 0 10 0;
#X connect 17 0 22 0;
#X connect 18 0 17 0;
#X connect 19 0 43 0;
#X connect 20 0 17 0;
#X connect 21 0 20 0;
#X connect 22 0 10 0;
#X connect 23 0 24 0;
#X connect 24 0 54 0;
#X connect 25 0 26 0;
#X connect 25 1 18 0;
#X connect 25 2 34 0;
#X connect 26 0 24 0;
#X connect 27 0 16 0;
#X connect 28 0 30 0;
#X connect 29 0 31 0;
#X connect 30 0 29 0;
#X connect 30 1 27 0;
#X connect 30 2 23 0;
#X connect 30 2 18 0;
#X connect 30 2 55 0;
#X connect 31 0 27 0;
#X connect 32 0 24 0;
#X connect 33 0 34 1;
#X connect 34 0 32 0;
#X connect 35 0 27 0;
#X connect 35 0 24 0;
#X connect 35 0 17 0;
#X connect 36 0 37 0;
#X connect 37 0 2 0;
#X connect 38 0 37 1;
#X connect 39 0 19 0;
#X connect 39 0 45 0;
#X connect 39 2 5 0;
#X connect 39 3 38 0;
#X connect 40 0 37 1;
#X connect 41 0 14 0;
#X connect 41 0 64 0;
#X connect 41 1 40 0;
#X connect 42 0 21 1;
#X connect 42 0 22 1;
#X connect 43 0 21 0;
#X connect 43 1 42 0;
#X connect 44 0 33 1;
#X connect 44 0 8 1;
#X connect 44 0 54 1;
#X connect 45 0 33 0;
#X connect 45 1 44 0;
#X connect 50 0 23 0;
#X connect 51 0 18 0;
#X connect 52 0 53 0;
#X connect 53 0 27 0;
#X connect 54 0 10 0;
#X connect 55 0 16 1;
#X connect 56 0 57 0;
#X connect 57 0 42 1;
#X connect 59 0 15 1;
#X connect 59 0 55 1;
#X connect 60 0 59 0;
#X connect 61 0 44 1;
#X connect 62 0 61 0;
#X connect 64 0 63 0;
#X connect 65 0 67 1;
#X connect 66 0 69 1;
#X connect 67 0 39 0;
#X connect 68 0 75 0;
#X connect 69 0 67 0;
#X connect 70 1 4 0;
#X connect 71 0 7 0;
#X connect 72 0 12 0;
#X connect 73 0 6 0;
#X connect 74 0 73 1;
#X connect 75 0 69 0;
#X connect 76 0 78 0;
#X connect 77 0 73 0;
#X connect 78 0 79 0;
#X connect 78 1 81 0;
#X connect 79 0 82 0;
#X connect 80 0 82 0;
#X connect 81 0 80 0;
#X connect 82 0 77 1;
#X connect 83 0 18 0;
#X connect 83 0 23 0;
#X connect 83 0 85 0;
#X connect 85 0 27 0;
#X restore 181 400 pd env-adr-pow;
#X f 26;
#X obj 654 230 inlet stn-lvl;
#X obj 691 284 inlet stn-time;
#X obj 676 258 inlet stn-frvr;
#X obj 104 47 inlet trigger;
#X obj 104 70 t b b;
#X obj 30 26 inlet~ stream;
#X obj 30 611 outlet~ stream~;
#X connect 0 0 2 2;
#X connect 1 0 19 0;
#X connect 2 0 1 1;
#X connect 3 0 2 0;
#X connect 4 0 12 1;
#X connect 5 0 12 2;
#X connect 6 0 12 3;
#X connect 7 0 12 10;
#X connect 8 0 12 5;
#X connect 9 0 12 4;
#X connect 10 0 12 11;
#X connect 11 0 12 6;
#X connect 12 0 1 2;
#X connect 13 0 12 7;
#X connect 14 0 12 9;
#X connect 15 0 12 8;
#X connect 16 0 17 0;
#X connect 17 0 12 0;
#X connect 17 1 2 1;
#X connect 18 0 1 0;
#X restore 44 860 pd lfo_vol-(0);
#X f 34;
#X text 1060 28 lfo_vol;
#N canvas 0 23 560 300 sinusVoice(2) 1;
#X obj 145 194 *~;
#X obj 207 151 pack \$1 30;
#X obj 207 175 line~;
#X obj 144 56 *~ 1;
#X obj 42 15 inlet~ Stream~;
#X obj 168 14 inlet voiceNr;
#X obj 275 13 inlet voiceVol;
#X obj 391 12 inlet phaseBng;
#X obj 145 246 outlet~ Stream~;
#N canvas 600 263 373 197 osc 0;
#X obj 43 128 outlet~ stream;
#X obj 43 37 inlet~ stream~;
#X obj 182 31 inlet phase;
#X msg 182 55 0.25;
#X obj 43 82 osc~;
#X connect 1 0 4 0;
#X connect 2 0 3 0;
#X connect 3 0 4 1;
#X connect 4 0 0 0;
#X restore 144 101 pd osc;
#X obj 337 243 outlet~ frq;
#X floatatom 377 129 5 0 0 0 - - -;
#X connect 0 0 8 0;
#X connect 1 0 2 0;
#X connect 2 0 0 1;
#X connect 3 0 9 0;
#X connect 3 0 10 0;
#X connect 4 0 3 0;
#X connect 5 0 3 1;
#X connect 6 0 1 0;
#X connect 6 0 11 0;
#X connect 7 0 9 1;
#X connect 9 0 0 0;
#X restore 260 454 pd sinusVoice(2);
#X obj 1355 96 inlet vbrt-phase;
#X obj 1339 74 inlet vbrt-frq;
#X text 1339 48 vbrt-(0);
#X obj 1363 116 inlet vbrt-dly-time;
#X obj 1367 137 inlet vbrt-atk-lvl;
#X obj 1439 327 inlet vbrt-rls-pow;
#X obj 1399 222 inlet vbrt-dcy-pow;
#X obj 1407 243 inlet vbrt-stn-lvl;
#X obj 1422 285 inlet vbrt-stn-time;
#X obj 1415 264 inlet vbrt-stn-frvr;
#X obj 1374 158 inlet vbrt-atk-time;
#X obj 1382 179 inlet vbrt-atk-pow;
#X obj 1390 200 inlet vbrt-dcy-time;
#X obj 1430 306 inlet vbrt-rls-time;
#N canvas 0 41 738 523 vibrt-(0) 0;
#X obj 30 26 inlet~ stream;
#X obj 31 461 outlet~ stream~;
#X obj 423 16 inlet vbrt-dly-time;
#X obj 438 37 inlet vbrt-atk-lvl;
#X obj 573 229 inlet vbrt-rls-pow;
#X obj 498 122 inlet vbrt-dcy-pow;
#X obj 513 145 inlet vbrt-stn-lvl;
#X obj 543 187 inlet vbrt-stn-time;
#X obj 528 166 inlet vbrt-stn-frvr;
#N canvas 0 23 1440 800 fx-dadsr 0;
#X obj 424 751 outlet~;
#X obj 422 284 f;
#X obj 489 3 inlet dcy_time;
#X obj 422 191 delay;
#X obj 390 145 bng 15 250 50 0 empty empty empty 17 7 0 10 -262144
-1 -1;
#X floatatom 729 24 5 0 0 0 - - -;
#X obj 422 354 expr pow($f1 \, (1/$f2));
#X obj 422 307 t f b;
#X obj 424 713 +~;
#X floatatom 489 26 5 0 0 0 - - -;
#X floatatom 202 50 5 0 0 0 - - -;
#X floatatom 1056 54 5 0 0 0 - - -;
#X obj 971 520 snapshot~;
#X obj 1038 285 expr pow($f1 \, (1/$f2));
#X obj 1115 583 pow~ 1;
#X obj 108 583 line~;
#X msg 143 557 0 0;
#X floatatom 108 339 5 0 0 0 - - -;
#X obj 108 445 pack \$1 \$2, f 14;
#X obj 108 412 expr pow($f1 \, (1/$f2));
#X obj 108 606 pow~ 1;
#X msg 471 545 0 0;
#X obj 422 584 line~;
#X obj 422 377 t f b b;
#X obj 422 461 pack \$1 \$2;
#X obj 1115 530 line~;
#X msg 1038 322 \$1 0;
#X obj 1038 400 f;
#X obj 1038 347 t b l b;
#X msg 1038 423 0 \$1;
#X msg 348 506 \$1 0;
#X obj 302 435 expr pow($f1 \, (1/$f2));
#X obj 348 480 f;
#X msg 750 736 0 0;
#X obj 422 230 bng 15 250 50 0 empty empty empty 17 7 0 10 -262144
-1 -1;
#X obj 422 250 spigot;
#X msg 461 228 1;
#X obj 108 126 t f b b b;
#X msg 503 228 0;
#X obj 922 175 t b b;
#X obj 259 379 f 1;
#X obj 108 361 t f b;
#X obj 574 323 f 1;
#X obj 302 208 t f b;
#X text 601 325 vbrt-dcy-pow;
#X text 286 376 atk-pow;
#X text 970 542 where to start the release;
#X obj 422 607 pow~ 1;
#X obj 1192 541 f 1;
#X obj 1193 7 inlet vbrt-rls-pow;
#X obj 592 23 inlet vbrt-dcy-pow;
#X obj 933 734 outlet time-to-release;
#X obj 933 710 f;
#X obj 126 3 inlet vbrt-atk-lvl;
#X obj 61 26 inlet vbrt-dly-time;
#X obj 108 103 f;
#X obj 4 3 inlet trigger;
#X obj 4 55 delay, f 8;
#X obj 390 165 t b b;
#X obj 729 3 inlet vbrt-stn-lvl;
#X obj 202 26 inlet vbrt-atk-time;
#X obj 922 150 delay;
#X obj 954 6 inlet vbrt-stn-time;
#X obj 783 25 inlet vbrt-stn-frvr;
#X obj 745 133 spigot;
#X obj 783 48 sel 0;
#X msg 783 72 1;
#X msg 815 93 0;
#X obj 815 74 bng 15 250 50 0 empty empty empty 17 7 0 10 -262144 -1
-1;
#X obj 784 111 tgl 15 0 empty empty empty 17 7 0 10 -262144 -1 -1 1
1;
#X msg 1064 510 0 0;
#N canvas 700 253 276 103 safty-no-zero 0;
#X obj 24 16 inlet;
#X obj 24 66 outlet;
#X obj 24 41 expr if($f1 < 0.007 \, 0.007 \, $f1);
#X text 74 66 safty the pow == 0 is bad;
#X connect 0 0 2 0;
#X connect 2 0 1 0;
#X restore 279 45 pd safty-no-zero;
#X obj 279 3 inlet vbrt-atk-pow;
#N canvas 700 253 276 103 safty-no-zero 0;
#X obj 24 16 inlet;
#X obj 24 66 outlet;
#X obj 24 41 expr if($f1 < 0.007 \, 0.007 \, $f1);
#X text 74 66 safty the pow == 0 is bad;
#X connect 0 0 2 0;
#X connect 2 0 1 0;
#X restore 592 45 pd safty-no-zero;
#X text 470 247 turn decay on off if rls hits earlier;
#X obj 1056 31 inlet vbrt-rls-time;
#N canvas 700 253 276 103 safty-no-zero 0;
#X obj 24 16 inlet;
#X obj 24 66 outlet;
#X obj 24 41 expr if($f1 < 0.007 \, 0.007 \, $f1);
#X text 74 66 safty the pow == 0 is bad;
#X connect 0 0 2 0;
#X connect 2 0 1 0;
#X restore 1193 53 pd safty-no-zero;
#X text 963 144 release start;
#X floatatom 52 103 5 0 0 0 - - -;
#X obj 52 155 +;
#X obj 84 156 mtof;
#X obj 52 178 mtof;
#X obj 52 204 -;
#X obj 52 125 t f f;
#X floatatom 52 231 5 0 0 0 - - -;
#N canvas 364 154 401 269 trnsps-lvl 0;
#X obj 25 20 inlet midinote;
#X obj 136 20 inlet transp;
#X obj 25 134 +;
#X obj 57 135 mtof;
#X obj 25 157 mtof;
#X obj 25 183 -;
#X obj 25 104 t f f;
#X floatatom 25 210 5 0 0 0 - - -;
#X obj 25 232 outlet trnsp;
#X text 187 72 errechnet durch den frequenz abstand zum transpose-lvl-faktor
und gibt das als lvl an. ist wahrscheinlich nicht 100%tig korrekt;
#X connect 0 0 6 0;
#X connect 1 0 2 1;
#X connect 2 0 4 0;
#X connect 3 0 5 1;
#X connect 4 0 5 0;
#X connect 5 0 7 0;
#X connect 6 0 2 0;
#X connect 6 1 3 0;
#X connect 7 0 8 0;
#X restore 86 62 pd trnsps-lvl;
#X obj 4 26 t b f b;
#X connect 1 0 7 0;
#X connect 2 0 9 0;
#X connect 3 0 34 0;
#X connect 3 0 64 0;
#X connect 4 0 58 0;
#X connect 5 0 79 1;
#X connect 6 0 23 0;
#X connect 7 0 6 0;
#X connect 7 1 42 0;
#X connect 8 0 12 0;
#X connect 8 0 0 0;
#X connect 9 0 24 1;
#X connect 10 0 3 1;
#X connect 10 0 18 1;
#X connect 11 0 27 1;
#X connect 11 0 52 1;
#X connect 12 0 13 0;
#X connect 13 0 26 0;
#X connect 14 0 8 0;
#X connect 15 0 20 0;
#X connect 16 0 15 0;
#X connect 17 0 41 0;
#X connect 18 0 15 0;
#X connect 19 0 18 0;
#X connect 20 0 8 0;
#X connect 21 0 22 0;
#X connect 22 0 47 0;
#X connect 23 0 24 0;
#X connect 23 1 16 0;
#X connect 23 2 32 0;
#X connect 24 0 22 0;
#X connect 25 0 14 0;
#X connect 26 0 28 0;
#X connect 27 0 29 0;
#X connect 28 0 27 0;
#X connect 28 1 25 0;
#X connect 28 2 21 0;
#X connect 28 2 16 0;
#X connect 28 2 48 0;
#X connect 29 0 25 0;
#X connect 30 0 22 0;
#X connect 31 0 32 1;
#X connect 32 0 30 0;
#X connect 33 0 25 0;
#X connect 33 0 22 0;
#X connect 33 0 15 0;
#X connect 34 0 35 0;
#X connect 35 0 1 0;
#X connect 36 0 35 1;
#X connect 37 0 17 0;
#X connect 37 0 43 0;
#X connect 37 2 4 0;
#X connect 37 3 36 0;
#X connect 38 0 35 1;
#X connect 39 0 12 0;
#X connect 39 0 52 0;
#X connect 39 1 38 0;
#X connect 40 0 19 1;
#X connect 40 0 20 1;
#X connect 41 0 19 0;
#X connect 41 1 40 0;
#X connect 42 0 31 1;
#X connect 42 0 6 1;
#X connect 42 0 47 1;
#X connect 43 0 31 0;
#X connect 43 1 42 0;
#X connect 47 0 8 0;
#X connect 48 0 14 1;
#X connect 49 0 76 0;
#X connect 50 0 73 0;
#X connect 52 0 51 0;
#X connect 53 0 85 1;
#X connect 54 0 57 1;
#X connect 55 0 37 0;
#X connect 56 0 86 0;
#X connect 57 0 55 0;
#X connect 58 1 3 0;
#X connect 59 0 5 0;
#X connect 60 0 10 0;
#X connect 61 0 39 0;
#X connect 62 0 61 1;
#X connect 63 0 65 0;
#X connect 64 0 61 0;
#X connect 65 0 66 0;
#X connect 65 1 68 0;
#X connect 66 0 69 0;
#X connect 67 0 69 0;
#X connect 68 0 67 0;
#X connect 69 0 64 1;
#X connect 70 0 25 0;
#X connect 71 0 40 1;
#X connect 72 0 71 0;
#X connect 73 0 42 1;
#X connect 75 0 11 0;
#X connect 76 0 48 1;
#X connect 76 0 13 1;
#X connect 78 0 83 0;
#X connect 79 0 81 0;
#X connect 80 0 82 1;
#X connect 81 0 82 0;
#X connect 82 0 84 0;
#X connect 83 0 79 0;
#X connect 83 1 80 0;
#X connect 84 0 1 1;
#X connect 85 0 55 1;
#X connect 86 0 57 0;
#X connect 86 1 78 0;
#X connect 86 1 85 0;
#X connect 86 2 16 0;
#X connect 86 2 21 0;
#X connect 86 2 70 0;
#X restore 409 280 pd fx-dadsr;
#X f 26;
#X obj 453 58 inlet vbrt-atk-time;
#X obj 468 79 inlet vbrt-atk-pow;
#X obj 483 100 inlet vbrt-dcy-time;
#X obj 558 208 inlet vbrt-rls-time;
#X obj 190 165 osc~;
#X obj 190 298 *~;
#X obj 31 416 +~;
#X obj 190 104 f;
#X obj 266 14 inlet vbrt-frq;
#X obj 286 37 inlet vbrt-phase;
#X obj 215 131 f;
#X obj 144 70 t f b b;
#X obj 144 22 inlet mn-trigger;
#X text 207 234 vibrato transpose nach oben;
#N canvas 0 23 450 300 just-one 0;
#X obj 48 70 t f b;
#X obj 48 119 spigot;
#X obj 87 98 tgl 15 0 empty empty empty 17 7 0 10 -262144 -1 -1 0 1
;
#X obj 48 36 inlet;
#X obj 48 176 outlet;
#X text 182 57 fängt doppelte midi eingabe ab aber muss auch richtig
ausgelöst werden;
#X obj 145 104 bng 15 250 50 0 empty \$0-last_bng empty 17 7 0 10 -262144
-1 -1;
#X msg 145 124 0;
#X connect 0 0 1 0;
#X connect 0 1 2 0;
#X connect 1 0 4 0;
#X connect 2 0 1 1;
#X connect 3 0 0 0;
#X connect 6 0 7 0;
#X connect 7 0 2 0;
#X restore 144 48 pd just-one;
#X connect 0 0 16 0;
#X connect 2 0 9 1;
#X connect 3 0 9 2;
#X connect 4 0 9 11;
#X connect 5 0 9 6;
#X connect 6 0 9 7;
#X connect 7 0 9 9;
#X connect 8 0 9 8;
#X connect 9 0 15 1;
#X connect 10 0 9 3;
#X connect 11 0 9 4;
#X connect 12 0 9 5;
#X connect 13 0 9 10;
#X connect 14 0 15 0;
#X connect 15 0 16 1;
#X connect 16 0 1 0;
#X connect 17 0 14 0;
#X connect 18 0 17 1;
#X connect 19 0 20 1;
#X connect 20 0 14 1;
#X connect 21 0 9 0;
#X connect 21 1 20 0;
#X connect 21 2 17 0;
#X connect 22 0 24 0;
#X connect 24 0 21 0;
#X restore 178 389 pd vibrt-(0);
#X f 34;
#X obj 1585 87 inlet (fx)-dly-time;
#X obj 1589 108 inlet (fx)-atk-lvl;
#X obj 1661 298 inlet (fx)-rls-pow;
#X obj 1621 193 inlet (fx)-dcy-pow;
#X obj 1629 214 inlet (fx)-stn-lvl;
#X obj 1644 256 inlet (fx)-stn-time;
#X obj 1637 235 inlet (fx)-stn-frvr;
#X obj 1596 129 inlet (fx)-atk-time;
#X obj 1604 150 inlet (fx)-atk-pow;
#X obj 1612 171 inlet (fx)-dcy-time;
#X obj 1652 277 inlet (fx)-rls-time;
#N canvas 46 70 1394 674 lw-pss-dadsr-(0) 0;
#X obj 503 16 inlet (fx)-dly-time;
#X obj 518 37 inlet (fx)-atk-lvl;
#X obj 653 229 inlet (fx)-rls-pow;
#X obj 578 122 inlet (fx)-dcy-pow;
#X obj 593 145 inlet (fx)-stn-lvl;
#X obj 623 187 inlet (fx)-stn-time;
#X obj 608 166 inlet (fx)-stn-frvr;
#X obj 230 32 inlet trigger;
#X obj 30 26 inlet~ stream;
#X obj 30 611 outlet~ stream~;
#N canvas 0 23 1440 800 fx-dadsr 0;
#X obj 404 751 outlet~;
#X obj 402 284 f;
#X obj 469 3 inlet dcy_time;
#X obj 402 171 delay;
#X obj 370 125 bng 15 250 50 0 empty empty empty 17 7 0 10 -262144
-1 -1;
#X floatatom 709 24 5 0 0 0 - - -;
#X obj 402 354 expr pow($f1 \, (1/$f2));
#X obj 402 307 t f b;
#X obj 404 713 +~;
#X floatatom 469 26 5 0 0 0 - - -;
#X floatatom 182 48 5 0 0 0 - - -;
#X floatatom 1036 54 5 0 0 0 - - -;
#X obj 951 520 snapshot~;
#X obj 1018 285 expr pow($f1 \, (1/$f2));
#X obj 1095 583 pow~ 1;
#X obj 88 583 line~;
#X msg 123 557 0 0;
#X floatatom 88 339 5 0 0 0 - - -;
#X obj 88 445 pack \$1 \$2, f 14;
#X obj 88 412 expr pow($f1 \, (1/$f2));
#X obj 88 606 pow~ 1;
#X msg 451 545 0 0;
#X obj 402 584 line~;
#X obj 402 377 t f b b;
#X obj 402 461 pack \$1 \$2;
#X obj 1095 530 line~;
#X msg 1018 322 \$1 0;
#X obj 1018 400 f;
#X obj 1018 347 t b l b;
#X msg 1018 423 0 \$1;
#X msg 328 506 \$1 0;
#X obj 282 435 expr pow($f1 \, (1/$f2));
#X obj 328 480 f;
#X obj 402 230 bng 15 250 50 0 empty empty empty 17 7 0 10 -262144
-1 -1;
#X obj 402 250 spigot;
#X msg 441 228 1;
#X obj 88 106 t f b b b;
#X msg 483 228 0;
#X obj 902 175 t b b;
#X obj 239 379 f 1;
#X obj 88 361 t f b;
#X obj 554 323 f 1;
#X obj 282 208 t f b;
#X text 581 325 (fx)-dcy-pow;
#X text 266 376 atk-pow;
#X text 950 542 where to start the release;
#X obj 402 607 pow~ 1;
#X obj 1172 541 f 1;
#X obj 1173 7 inlet (fx)-rls-pow;
#X obj 572 23 inlet (fx)-dcy-pow;
#X obj 913 734 outlet time-to-release;
#X obj 913 710 f;
#X obj 106 3 inlet (fx)-atk-lvl;
#X obj 63 26 inlet (fx)-dly-time;
#X obj 88 73 f;
#X obj 4 3 inlet trigger;
#X obj 4 55 delay, f 9;
#X obj 370 145 t b b;
#X obj 709 3 inlet (fx)-stn-lvl;
#X obj 182 24 inlet (fx)-atk-time;
#X obj 902 150 delay;
#X obj 934 6 inlet (fx)-stn-time;
#X obj 763 25 inlet (fx)-stn-frvr;
#X obj 725 133 spigot;
#X obj 763 48 sel 0;
#X msg 763 72 1;
#X msg 795 93 0;
#X obj 795 74 bng 15 250 50 0 empty empty empty 17 7 0 10 -262144 -1
-1;
#X obj 764 111 tgl 15 0 empty empty empty 17 7 0 10 -262144 -1 -1 0
1;
#X msg 1044 510 0 0;
#N canvas 700 253 276 103 safty-no-zero 0;
#X obj 24 16 inlet;
#X obj 24 66 outlet;
#X obj 24 41 expr if($f1 < 0.007 \, 0.007 \, $f1);
#X text 74 66 safty the pow == 0 is bad;
#X connect 0 0 2 0;
#X connect 2 0 1 0;
#X restore 259 45 pd safty-no-zero;
#X obj 259 3 inlet (fx)-atk-pow;
#N canvas 700 253 276 103 safty-no-zero 0;
#X obj 24 16 inlet;
#X obj 24 66 outlet;
#X obj 24 41 expr if($f1 < 0.007 \, 0.007 \, $f1);
#X text 74 66 safty the pow == 0 is bad;
#X connect 0 0 2 0;
#X connect 2 0 1 0;
#X restore 572 45 pd safty-no-zero;
#X text 450 247 turn decay on off if rls hits earlier;
#X obj 1036 31 inlet (fx)-rls-time;
#N canvas 700 253 276 103 safty-no-zero 0;
#X obj 24 16 inlet;
#X obj 24 66 outlet;
#X obj 24 41 expr if($f1 < 0.007 \, 0.007 \, $f1);
#X text 74 66 safty the pow == 0 is bad;
#X connect 0 0 2 0;
#X connect 2 0 1 0;
#X restore 1173 53 pd safty-no-zero;
#X text 943 144 release start;
#X obj 696 294 bng 15 250 50 0 empty empty empty 17 7 0 10 -262144
-1 -1;
#X obj 4 26 t b b;
#X obj 1326 9 inlet switch;
#X obj 1326 32 tgl 15 0 empty empty empty 17 7 0 10 -262144 -1 -1 1
1;
#X obj 1326 92 switch~;
#X connect 1 0 7 0;
#X connect 2 0 9 0;
#X connect 3 0 33 0;
#X connect 3 0 63 0;
#X connect 4 0 57 0;
#X connect 5 0 1 1;
#X connect 6 0 23 0;
#X connect 7 0 6 0;
#X connect 7 1 41 0;
#X connect 8 0 12 0;
#X connect 8 0 0 0;
#X connect 9 0 24 1;
#X connect 10 0 3 1;
#X connect 10 0 18 1;
#X connect 11 0 27 1;
#X connect 11 0 51 1;
#X connect 12 0 13 0;
#X connect 13 0 26 0;
#X connect 14 0 8 0;
#X connect 15 0 20 0;
#X connect 16 0 15 0;
#X connect 17 0 40 0;
#X connect 18 0 15 0;
#X connect 19 0 18 0;
#X connect 20 0 8 0;
#X connect 21 0 22 0;
#X connect 22 0 46 0;
#X connect 23 0 24 0;
#X connect 23 1 16 0;
#X connect 23 2 32 0;
#X connect 24 0 22 0;
#X connect 25 0 14 0;
#X connect 26 0 28 0;
#X connect 27 0 29 0;
#X connect 28 0 27 0;
#X connect 28 1 25 0;
#X connect 28 2 21 0;
#X connect 28 2 16 0;
#X connect 28 2 47 0;
#X connect 29 0 25 0;
#X connect 30 0 22 0;
#X connect 31 0 32 1;
#X connect 32 0 30 0;
#X connect 33 0 34 0;
#X connect 34 0 1 0;
#X connect 34 0 77 0;
#X connect 35 0 34 1;
#X connect 36 0 17 0;
#X connect 36 0 42 0;
#X connect 36 2 4 0;
#X connect 36 3 35 0;
#X connect 37 0 34 1;
#X connect 38 0 12 0;
#X connect 38 0 51 0;
#X connect 38 1 37 0;
#X connect 39 0 19 1;
#X connect 39 0 20 1;
#X connect 40 0 19 0;
#X connect 40 1 39 0;
#X connect 41 0 31 1;
#X connect 41 0 6 1;
#X connect 41 0 46 1;
#X connect 42 0 31 0;
#X connect 42 1 41 0;
#X connect 46 0 8 0;
#X connect 47 0 14 1;
#X connect 48 0 75 0;
#X connect 49 0 72 0;
#X connect 51 0 50 0;
#X connect 52 0 54 1;
#X connect 53 0 56 1;
#X connect 54 0 36 0;
#X connect 55 0 78 0;
#X connect 56 0 54 0;
#X connect 57 1 3 0;
#X connect 58 0 5 0;
#X connect 59 0 10 0;
#X connect 60 0 38 0;
#X connect 61 0 60 1;
#X connect 62 0 64 0;
#X connect 63 0 60 0;
#X connect 64 0 65 0;
#X connect 64 1 67 0;
#X connect 65 0 68 0;
#X connect 66 0 68 0;
#X connect 67 0 66 0;
#X connect 68 0 63 1;
#X connect 69 0 25 0;
#X connect 70 0 39 1;
#X connect 71 0 70 0;
#X connect 72 0 41 1;
#X connect 74 0 11 0;
#X connect 75 0 47 1;
#X connect 75 0 13 1;
#X connect 78 0 56 0;
#X connect 78 1 16 0;
#X connect 78 1 21 0;
#X connect 78 1 69 0;
#X connect 79 0 80 0;
#X connect 80 0 81 0;
#X restore 489 400 pd fx-dadsr;
#X f 26;
#X obj 533 58 inlet (fx)-atk-time;
#X obj 548 79 inlet (fx)-atk-pow;
#X obj 563 100 inlet (fx)-dcy-time;
#X obj 638 208 inlet (fx)-rls-time;
#N canvas 1807 124 1486 759 lop-ass 0;
#X obj 98 50 inlet~ stream~;
#X obj 98 230 +~;
#X obj 95 680 outlet~ stream~;
#X obj 98 493 *~;
#X obj 278 399 *~;
#X obj 116 437 expr~ (1 - $v1);
#X obj 98 520 +~;
#X obj 278 266 02-Filters/lowpass~;
#X obj 322 138 +~;
#X obj 322 39 inlet~ frq~;
#X obj 322 62 ftom~;
#X obj 322 85 +~;
#X obj 322 108 mtof~;
#X obj 422 39 inlet trnsp;
#X obj 1108 45 inlet~ lop-d/w;
#X obj 296 337 +~;
#X obj 907 9 inlet q;
#X obj 907 52 pack \$1 10;
#X obj 907 75 line~;
#X obj 422 66 pack \$1 10;
#X obj 422 89 line~;
#N canvas 0 23 810 564 dry-wet~ 0;
#X obj 40 392 *~;
#X obj 106 328 *~;
#X obj 58 366 expr~ (1 - $v1);
#X obj 124 293 +~;
#X obj 106 214 *~;
#X obj 38 21 inlet~ stream~;
#X text 131 217 hier das neue signal;
#X obj 381 24 inlet~ dry_wet~;
#X obj 40 450 outlet~ stream;
#X obj 179 21 inlet~ signal_input;
#X text 183 42 hier das neue signal;
#X connect 0 0 8 0;
#X connect 1 0 8 0;
#X connect 2 0 0 1;
#X connect 3 0 1 1;
#X connect 3 0 2 0;
#X connect 4 0 1 0;
#X connect 5 0 0 0;
#X connect 5 0 4 0;
#X connect 7 0 3 1;
#X connect 9 0 4 1;
#X restore 801 640 pd dry-wet~;
#N canvas 0 23 733 719 filterswitch 0;
#X obj 97 266 +~;
#X obj 97 459 *~;
#X obj 156 395 *~;
#X obj 115 433 expr~ (1 - $v1);
#X obj 97 486 +~;
#X obj 156 302 02-Filters/lowpass~;
#X obj 174 373 +~;
#X obj 91 45 inlet~ stream~;
#X obj 98 619 outlet~;
#X obj 266 43 inlet~ frq~;
#X obj 366 43 inlet~ q~;
#X obj 454 41 inlet~ dry/wet;
#X connect 0 0 1 0;
#X connect 0 0 5 0;
#X connect 1 0 4 0;
#X connect 2 0 4 0;
#X connect 3 0 1 1;
#X connect 4 0 8 0;
#X connect 5 0 2 0;
#X connect 6 0 2 1;
#X connect 6 0 3 0;
#X connect 7 0 0 0;
#X connect 9 0 5 1;
#X connect 10 0 5 2;
#X connect 11 0 6 0;
#X restore 1196 501 pd filterswitch;
#X obj 278 309 *~;
#X obj 906 103 expr~ if( $v1 <= 0.1 \, 10 \, 1 / $v1);
#X obj 98 543 *~;
#X obj 579 515 expr~ if( $v1 <= 0.5 \, $v1 + 1 \, (1 - $v1) + 1);
#X obj 1108 68 +~;
#X obj 395 218 bng 15 250 50 0 empty \$0-b00 \$0-phase-bang 17 7 0
10 -262144 -1 -1;
#X connect 0 0 1 0;
#X connect 1 0 3 0;
#X connect 1 0 7 0;
#X connect 3 0 6 0;
#X connect 4 0 6 0;
#X connect 5 0 3 1;
#X connect 6 0 25 0;
#X connect 7 0 23 0;
#X connect 8 0 7 1;
#X connect 9 0 10 0;
#X connect 10 0 11 0;
#X connect 11 0 12 0;
#X connect 12 0 8 0;
#X connect 13 0 19 0;
#X connect 14 0 27 0;
#X connect 15 0 4 1;
#X connect 15 0 5 0;
#X connect 16 0 17 0;
#X connect 17 0 18 0;
#X connect 18 0 7 2;
#X connect 18 0 24 0;
#X connect 19 0 20 0;
#X connect 20 0 11 1;
#X connect 23 0 4 0;
#X connect 24 0 23 1;
#X connect 25 0 2 0;
#X connect 26 0 25 1;
#X connect 27 0 26 0;
#X connect 27 0 15 0;
#X connect 28 0 7 3;
#X restore 30 486 pd lop-ass;
#X obj 136 27 inlet~ freq~;
#X obj 336 24 inlet transp;
#X obj 442 25 inlet q;
#X floatatom 324 75 5 0 0 0 - - -;
#X floatatom 385 75 5 0 0 0 - - -;
#X obj 701 400 expr if($f1 == 0 && $f2 == 0 && $f3 == 0 && $f4 == 1
\, 0 \, 1);
#X obj 701 291 t b f;
#X obj 701 326 f;
#X obj 761 291 t b f;
#X obj 825 292 t b f;
#X obj 887 295 t b f;
#X floatatom 701 423 5 0 0 0 - - -;
#N canvas 0 23 450 300 just-stn-lvl 0;
#X obj 40 57 pack \$1 10;
#X obj 40 80 line~;
#X obj 287 38 inlet switch;
#X obj 287 61 sel 0;
#X msg 287 84 1;
#X obj 319 87 bng 15 250 50 0 empty empty empty 17 7 0 10 -262144 -1
-1;
#X msg 319 107 0;
#X obj 294 145 tgl 15 0 empty empty empty 17 7 0 10 -262144 -1 -1 0
1;
#X obj 294 165 switch~;
#X obj 42 246 outlet~;
#X obj 40 24 inlet stn-lvl;
#X connect 0 0 1 0;
#X connect 1 0 9 0;
#X connect 2 0 3 0;
#X connect 3 0 4 0;
#X connect 3 1 5 0;
#X connect 4 0 7 0;
#X connect 5 0 6 0;
#X connect 6 0 7 0;
#X connect 7 0 8 0;
#X connect 10 0 0 0;
#X restore 268 386 pd just-stn-lvl;
#X obj 500 468 env~;
#X floatatom 500 491 5 0 0 0 - - -;
#X obj 291 469 env~;
#X floatatom 291 492 5 0 0 0 - - -;
#X obj 30 49 delwrite~ \$0-test 10;
#X obj 46 164 delread4~ \$0-test;
#X obj 60 106 loadbang;
#X msg 60 129 1;
#X connect 0 0 10 1;
#X connect 0 0 22 0;
#X connect 1 0 10 2;
#X connect 2 0 10 11;
#X connect 3 0 10 6;
#X connect 4 0 10 7;
#X connect 4 0 28 0;
#X connect 5 0 10 9;
#X connect 6 0 10 8;
#X connect 6 0 26 0;
#X connect 7 0 10 0;
#X connect 8 0 33 0;
#X connect 10 0 15 4;
#X connect 10 0 29 0;
#X connect 11 0 10 3;
#X connect 11 0 24 0;
#X connect 12 0 10 4;
#X connect 13 0 10 5;
#X connect 13 0 25 0;
#X connect 14 0 10 10;
#X connect 15 0 9 0;
#X connect 16 0 15 1;
#X connect 17 0 15 2;
#X connect 17 0 19 0;
#X connect 18 0 15 3;
#X connect 18 0 20 0;
#X connect 21 0 27 0;
#X connect 22 0 23 0;
#X connect 22 1 23 1;
#X connect 23 0 21 0;
#X connect 24 0 23 0;
#X connect 24 1 21 1;
#X connect 25 0 23 0;
#X connect 25 1 21 2;
#X connect 26 0 23 0;
#X connect 26 1 21 3;
#X connect 27 0 10 12;
#X connect 27 0 28 1;
#X connect 28 0 15 4;
#X connect 28 0 31 0;
#X connect 29 0 30 0;
#X connect 31 0 32 0;
#X connect 34 0 15 0;
#X connect 35 0 36 0;
#X connect 36 0 34 0;
#X restore 52 558 pd lw-pss-dadsr-(0);
#X f 34;
#X obj 88 528 bng 15 250 50 0 empty \$0-b00 \$0-phase-bang 17 7 0 10
-262144 -1 -1;
#X obj 1573 65 inlet lw-pss-q-(0);
#X obj 1559 43 inlet lw-pss-trnsps-(0);
#X obj 167 318 *;
#X obj 682 200 t f b;
#X obj 1741 477 inlet dry-wet-(0);
#X obj 1729 454 inlet pre-verb-(0);
#X obj 1712 408 inlet damping-(0);
#X obj 1704 387 inlet roomsize-(0);
#X obj 1720 430 inlet frvrb-dry-wet-(0);
#N canvas 514 90 898 732 freeverb-(0) 0;
#X obj 47 23 inlet~;
#X obj 141 216 freeverb~;
#X msg 352 111 wet \$1;
#X obj 235 207 hsl 128 15 0 1 0 0 empty empty empty -2 -8 0 10 -262144
-1 -1 0 1;
#X msg 232 227 dry \$1;
#X msg 108 96 roomsize \$1;
#X obj 305 123 t b f;
#X msg 305 149 1;
#X obj 319 177 -;
#X obj 108 24 inlet roomsize;
#X obj 352 24 inlet dry-wet;
#X obj 451 287 pack \$1 30;
#X obj 451 338 vd~ \$0-frvrb-pre-verb;
#X obj 58 651 outlet~;
#X obj 560 23 inlet dry-wet-master;
#X obj 451 23 inlet preverb;
#X obj 451 311 line~;
#X obj 216 454 *~;
#X obj 234 388 pack \$1 30;
#X obj 234 410 line~;
#X obj 57 518 *~;
#X obj 75 492 expr~ (1 - $v1);
#X obj 57 559 +~;
#X obj 140 290 delwrite~ \$0-frvrb-pre-verb 600;
#X msg 218 95 damping \$1;
#X obj 221 24 inlet damping;
#X text 603 70 ist jetzt doppelt dry wet;
#X obj 108 72 line;
#X obj 108 48 pack \$1 100;
#X obj 218 72 line;
#X obj 218 48 pack \$1 100;
#X obj 338 82 line;
#X obj 338 58 pack \$1 100;
#X obj 141 255 *~ 0.9;
#X connect 0 0 1 0;
#X connect 0 0 20 0;
#X connect 1 0 33 0;
#X connect 2 0 1 0;
#X connect 3 0 4 0;
#X connect 4 0 1 0;
#X connect 5 0 1 0;
#X connect 6 0 7 0;
#X connect 6 1 8 1;
#X connect 7 0 8 0;
#X connect 8 0 3 0;
#X connect 9 0 28 0;
#X connect 10 0 32 0;
#X connect 11 0 16 0;
#X connect 12 0 17 0;
#X connect 14 0 18 0;
#X connect 15 0 11 0;
#X connect 16 0 12 0;
#X connect 17 0 22 0;
#X connect 18 0 19 0;
#X connect 19 0 17 1;
#X connect 19 0 21 0;
#X connect 20 0 22 0;
#X connect 21 0 20 1;
#X connect 22 0 13 0;
#X connect 24 0 1 0;
#X connect 25 0 30 0;
#X connect 27 0 5 0;
#X connect 28 0 27 0;
#X connect 29 0 24 0;
#X connect 30 0 29 0;
#X connect 31 0 2 0;
#X connect 31 0 6 0;
#X connect 32 0 31 0;
#X connect 33 0 23 0;
#X restore 44 785 pd freeverb-(0);
#X f 29;
#X connect 0 0 10 0;
#X connect 1 0 28 0;
#X connect 1 0 29 0;
#X connect 1 0 92 0;
#X connect 2 0 93 0;
#X connect 4 0 6 0;
#X connect 5 0 4 0;
#X connect 5 0 7 0;
#X connect 7 0 8 0;
#X connect 9 0 99 0;
#X connect 10 0 1 0;
#X connect 10 1 2 0;
#X connect 11 0 12 0;
#X connect 12 0 28 1;
#X connect 12 0 29 1;
#X connect 13 0 29 2;
#X connect 14 0 9 1;
#X connect 15 0 29 3;
#X connect 16 0 22 3;
#X connect 17 0 28 2;
#X connect 18 0 28 3;
#X connect 20 0 22 1;
#X connect 20 0 92 1;
#X connect 21 0 22 2;
#X connect 22 0 88 0;
#X connect 22 1 88 1;
#X connect 25 0 61 3;
#X connect 26 0 61 1;
#X connect 27 0 61 2;
#X connect 29 0 76 0;
#X connect 31 0 46 1;
#X connect 32 0 46 6;
#X connect 33 0 46 3;
#X connect 34 0 46 5;
#X connect 35 0 46 2;
#X connect 36 0 46 7;
#X connect 37 0 46 4;
#X connect 39 0 3 0;
#X connect 39 0 40 0;
#X connect 40 0 42 0;
#X connect 40 1 58 0;
#X connect 42 0 41 0;
#X connect 43 0 59 3;
#X connect 44 0 59 1;
#X connect 45 0 59 2;
#X connect 46 0 14 0;
#X connect 46 1 40 1;
#X connect 47 0 59 4;
#X connect 48 0 59 5;
#X connect 49 0 59 6;
#X connect 50 0 59 13;
#X connect 51 0 59 8;
#X connect 52 0 59 7;
#X connect 53 0 59 14;
#X connect 54 0 59 9;
#X connect 55 0 59 10;
#X connect 56 0 59 12;
#X connect 57 0 59 11;
#X connect 59 0 39 0;
#X connect 61 0 88 0;
#X connect 62 0 76 3;
#X connect 63 0 76 2;
#X connect 65 0 76 4;
#X connect 66 0 76 5;
#X connect 67 0 76 14;
#X connect 68 0 76 9;
#X connect 69 0 76 10;
#X connect 70 0 76 12;
#X connect 71 0 76 11;
#X connect 72 0 76 6;
#X connect 73 0 76 7;
#X connect 74 0 76 8;
#X connect 75 0 76 13;
#X connect 76 0 61 0;
#X connect 76 0 22 0;
#X connect 77 0 88 5;
#X connect 78 0 88 6;
#X connect 79 0 88 15;
#X connect 80 0 88 10;
#X connect 81 0 88 11;
#X connect 82 0 88 13;
#X connect 83 0 88 12;
#X connect 84 0 88 7;
#X connect 85 0 88 8;
#X connect 86 0 88 9;
#X connect 87 0 88 14;
#X connect 88 0 9 0;
#X connect 89 0 88 2;
#X connect 90 0 88 4;
#X connect 91 0 88 3;
#X connect 92 0 76 1;
#X connect 93 0 46 0;
#X connect 94 0 99 5;
#X connect 95 0 99 4;
#X connect 96 0 99 2;
#X connect 97 0 99 1;
#X connect 98 0 99 3;
#X connect 99 0 59 0;
