#N canvas 1932 -16 893 774 12;
#X obj 101 29 adc~;
#X obj 175 267 freeverb~;
#X msg 593 124 roomsize \$1;
#X msg 593 170 damping \$1;
#X msg 593 217 width \$1;
#X msg 594 52 wet \$1;
#X msg 594 74 dry \$1;
#X obj 99 464 output;
#X obj 597 27 hsl 128 15 0 1 0 0 empty empty Dry_--------------_Wet
-2 -8 0 10 -262144 -1 -1 0 1;
#X obj 470 377 zero_zero;
#X obj 473 353 hsl 128 15 0 1 0 0 empty empty empty -2 -8 0 10 -262144
-1 -1 4200 1;
#X obj 609 354 tgl 15 0 empty empty empty 17 7 0 10 -262144 -1 -1 0
1;
#X floatatom 650 74 5 0 0 0 - - -;
#X obj 650 51 expr 1 - $f1;
#X obj 596 103 hsl 128 15 0 1 0 0 empty empty empty -2 -8 0 10 -262144
-1 -1 12700 1;
#X obj 596 149 hsl 128 15 0 1 0 0 empty empty empty -2 -8 0 10 -262144
-1 -1 0 1;
#X obj 596 197 hsl 128 15 0 1 0 0 empty empty empty -2 -8 0 10 -262144
-1 -1 0 1;
#X obj 101 100 *~;
#X obj 184 23 hsl 128 15 0 1 0 0 empty empty mic_vol -2 -8 0 10 -262144
-1 -1 8200 1;
#X floatatom 181 43 5 0 0 0 - - -;
#X obj 181 65 pack \$1 10;
#X obj 181 88 line~;
#X obj 134 99 *~;
#X connect 0 0 17 0;
#X connect 0 1 22 0;
#X connect 1 0 7 0;
#X connect 1 1 7 0;
#X connect 2 0 1 0;
#X connect 3 0 1 0;
#X connect 4 0 1 0;
#X connect 5 0 1 0;
#X connect 6 0 1 0;
#X connect 8 0 5 0;
#X connect 8 0 13 0;
#X connect 9 0 1 0;
#X connect 9 0 1 1;
#X connect 10 0 9 0;
#X connect 11 0 9 1;
#X connect 12 0 6 0;
#X connect 13 0 12 0;
#X connect 14 0 2 0;
#X connect 15 0 3 0;
#X connect 16 0 4 0;
#X connect 17 0 1 0;
#X connect 18 0 19 0;
#X connect 19 0 20 0;
#X connect 20 0 21 0;
#X connect 21 0 17 1;
#X connect 21 0 22 1;
#X connect 22 0 1 1;
