#N canvas 1704 155 1440 799 12;
#X obj 54 66 Zero_00;
#X obj 54 571 Output;
#X obj 1053 233 MM04;
#X floatatom 1259 401 5 0 0 0 - - -;
#N canvas 31 104 820 711 melodie02 0;
#X floatatom 100 352 4 0 0 0 - - -;
#X floatatom 130 352 4 0 0 0 - - -;
#X floatatom 160 352 4 0 0 0 - - -;
#X floatatom 190 352 4 0 0 0 - - -;
#X floatatom 220 352 4 0 0 0 - - -;
#X floatatom 250 352 4 0 0 0 - - -;
#X floatatom 280 352 4 0 0 0 - - -;
#X floatatom 310 352 4 0 0 0 - - -;
#X obj 98 497 sel -99;
#X obj 399 17 inlet notes;
#X obj 98 605 outlet melodie;
#X obj 343 337 bng 15 250 50 0 empty empty empty 17 7 0 10 -262144
-1 -1;
#X obj 142 535 spigot;
#X obj 345 301 tgl 15 0 empty empty on 17 7 0 10 -262144 -1 -1 1 1
;
#X obj 757 24 loadbang;
#X msg 757 48 1;
#N canvas 0 23 450 300 presets 0;
#X msg 52 60 98 -3 38 0 0 0 0 0;
#X obj 201 154 text;
#X restore 567 37 pd presets;
#X obj 443 198 unpack \$1 \$2 \$3 \$4 \$5 \$6 \$7 \$8;
#X floatatom 187 317 5 0 0 0 xfstr - -;
#X obj 33 237 sel 0 1 2 3 4 5 6 7;
#X obj 34 17 r global-time;
#X floatatom 33 173 10 0 0 0 - - -;
#X obj 33 193 % 8;
#X obj 33 128 f;
#X obj 33 96 sel 0;
#X obj 33 152 t f b;
#X obj 34 39 t f f b;
#X floatatom 137 72 5 0 0 0 - - -;
#X obj 268 68 r global-time;
#X floatatom 268 92 5 0 0 0 - - -;
#X obj 268 139 sel 0;
#X obj 268 169 random 5;
#X obj 320 148 bng 15 250 50 0 empty empty empty 17 7 0 10 -262144
-1 -1;
#X obj 268 115 % 64;
#X obj 343 354 bng 15 250 50 0 empty empty empty 17 7 0 10 -262144
-1 -1;
#X msg 460 146 0;
#X msg 420 146 1;
#X obj 400 119 t b b l b;
#X obj 268 191 + 1;
#X obj 268 219 spigot;
#X obj 226 319 tgl 15 0 empty empty rndm 17 7 0 10 -262144 -1 -1 0
1;
#X obj 98 473 expr if( $f1 <= 0 \, -99 \, $f1 );
#X obj 100 337 bng 11 250 50 0 empty empty empty 17 7 0 10 -262144
-1 -1;
#X obj 130 337 bng 11 250 50 0 empty empty empty 17 7 0 10 -262144
-1 -1;
#X obj 403 417 sel 1;
#X obj 423 467 sel 1;
#X obj 423 445 expr if($f1 > 0 \, 1 \, -9);
#X obj 403 395 expr if($f1 > 0 \, 1 \, -9);
#X obj 161 337 bng 11 250 50 0 empty empty empty 17 7 0 10 -262144
-1 -1;
#X obj 443 515 sel 1;
#X obj 443 493 expr if($f1 > 0 \, 1 \, -9);
#X obj 191 338 bng 11 250 50 0 empty empty empty 17 7 0 10 -262144
-1 -1;
#X obj 463 565 sel 1;
#X obj 463 543 expr if($f1 > 0 \, 1 \, -9);
#X obj 220 337 bng 11 250 50 0 empty empty empty 17 7 0 10 -262144
-1 -1;
#X obj 250 337 bng 11 250 50 0 empty empty empty 17 7 0 10 -262144
-1 -1;
#X obj 593 417 sel 1;
#X obj 613 467 sel 1;
#X obj 613 445 expr if($f1 > 0 \, 1 \, -9);
#X obj 593 395 expr if($f1 > 0 \, 1 \, -9);
#X obj 281 337 bng 11 250 50 0 empty empty empty 17 7 0 10 -262144
-1 -1;
#X obj 633 515 sel 1;
#X obj 633 493 expr if($f1 > 0 \, 1 \, -9);
#X obj 311 338 bng 11 250 50 0 empty empty empty 17 7 0 10 -262144
-1 -1;
#X obj 653 565 sel 1;
#X obj 653 543 expr if($f1 > 0 \, 1 \, -9);
#X obj 173 139 s xfstr;
#X obj 117 573 +;
#X floatatom 323 317 5 0 0 0 trnsps - -;
#X floatatom 242 300 5 0 0 1 isPlayed - -;
#X obj 86 106 /;
#X obj 34 72 %;
#X msg 758 75 2;
#X connect 0 0 41 0;
#X connect 0 0 47 0;
#X connect 1 0 41 0;
#X connect 1 0 46 0;
#X connect 2 0 41 0;
#X connect 2 0 50 0;
#X connect 3 0 41 0;
#X connect 3 0 53 0;
#X connect 4 0 41 0;
#X connect 4 0 59 0;
#X connect 5 0 41 0;
#X connect 5 0 58 0;
#X connect 6 0 41 0;
#X connect 6 0 62 0;
#X connect 7 0 41 0;
#X connect 7 0 65 0;
#X connect 8 1 12 0;
#X connect 9 0 34 0;
#X connect 9 0 37 0;
#X connect 12 0 67 0;
#X connect 13 0 12 1;
#X connect 14 0 15 0;
#X connect 14 0 72 0;
#X connect 15 0 13 0;
#X connect 17 0 0 0;
#X connect 17 1 1 0;
#X connect 17 2 2 0;
#X connect 17 3 3 0;
#X connect 17 4 4 0;
#X connect 17 5 5 0;
#X connect 17 6 6 0;
#X connect 17 7 7 0;
#X connect 18 0 27 0;
#X connect 19 0 0 0;
#X connect 19 1 1 0;
#X connect 19 2 2 0;
#X connect 19 3 3 0;
#X connect 19 4 4 0;
#X connect 19 5 5 0;
#X connect 19 6 6 0;
#X connect 19 7 7 0;
#X connect 20 0 26 0;
#X connect 21 0 22 0;
#X connect 22 0 19 0;
#X connect 23 0 25 0;
#X connect 24 0 23 0;
#X connect 25 0 21 0;
#X connect 26 0 71 0;
#X connect 26 1 70 0;
#X connect 27 0 66 0;
#X connect 27 0 70 1;
#X connect 27 0 71 1;
#X connect 28 0 29 0;
#X connect 29 0 33 0;
#X connect 30 0 32 0;
#X connect 31 0 38 0;
#X connect 32 0 31 0;
#X connect 33 0 30 0;
#X connect 35 0 13 0;
#X connect 36 0 13 0;
#X connect 37 1 36 0;
#X connect 37 2 17 0;
#X connect 37 3 35 0;
#X connect 38 0 39 0;
#X connect 39 0 18 0;
#X connect 40 0 39 1;
#X connect 41 0 8 0;
#X connect 44 0 42 0;
#X connect 45 0 43 0;
#X connect 46 0 45 0;
#X connect 47 0 44 0;
#X connect 49 0 48 0;
#X connect 50 0 49 0;
#X connect 52 0 51 0;
#X connect 53 0 52 0;
#X connect 56 0 54 0;
#X connect 57 0 55 0;
#X connect 58 0 57 0;
#X connect 59 0 56 0;
#X connect 61 0 60 0;
#X connect 62 0 61 0;
#X connect 64 0 63 0;
#X connect 65 0 64 0;
#X connect 67 0 10 0;
#X connect 67 0 11 0;
#X connect 67 0 69 0;
#X connect 68 0 67 1;
#X connect 70 0 23 1;
#X connect 71 0 24 0;
#X connect 72 0 18 0;
#X coords 0 -1 1 1 260 70 2 100 300;
#X restore 1053 322 pd melodie02;
#X floatatom 1053 397 5 0 0 0 - - -;
#X obj 1259 423 s \$0-preset;
#X obj 276 12 r \$0-preset;
#X obj 1009 544 s \$0-midi-poly-notes;
#X obj 70 13 r \$0-midi-poly-notes;
#X obj 1003 730 s \$0-midi-poly-notes;
#X obj 668 583 spectroskop;
#N canvas 415 121 889 588 make-midi-poly 0;
#X obj 108 397 - 1;
#X obj 108 422 pack 0 0 0;
#X obj 109 299 makenote;
#X obj 109 322 pack f f;
#X obj 179 279 r \$0-velo;
#X obj 249 279 r \$0-stn;
#X obj 211 350 r poly-voices;
#X obj 205 448 outlet mono;
#X obj 108 447 outlet poly;
#X obj 120 20 inlet midinote;
#X floatatom 115 142 5 0 0 0 - - -;
#X obj 416 237 random 1000;
#X floatatom 185 178 5 0 0 2 velo - #0-velo;
#X floatatom 243 178 5 0 0 2 stn - #0-stn;
#X obj 336 237 random 120;
#X obj 336 260 + 7;
#X floatatom 240 113 5 0 0 2 stn_max - -;
#X obj 416 260 + 200;
#X floatatom 242 146 5 0 0 2 stn_min - -;
#X floatatom 183 113 5 0 127 2 vel-mx - -;
#X floatatom 184 144 5 0 127 2 vel-mn - -;
#X obj 120 65 t f b b;
#X obj 116 247 spigot;
#X obj 115 169 tgl 15 0 empty empty on/off 17 7 0 10 -262144 -1 -1
0 1;
#X obj 108 372 poly 16 1;
#X connect 0 0 1 0;
#X connect 1 0 8 0;
#X connect 2 0 3 0;
#X connect 2 1 3 1;
#X connect 3 0 7 0;
#X connect 3 0 24 0;
#X connect 4 0 2 1;
#X connect 5 0 2 2;
#X connect 6 0 24 1;
#X connect 9 0 10 0;
#X connect 10 0 21 0;
#X connect 10 0 22 0;
#X connect 11 0 17 0;
#X connect 14 0 15 0;
#X connect 15 0 12 0;
#X connect 16 0 11 1;
#X connect 17 0 13 0;
#X connect 18 0 17 1;
#X connect 19 0 14 1;
#X connect 20 0 15 1;
#X connect 21 1 14 0;
#X connect 21 2 11 0;
#X connect 22 0 2 0;
#X connect 23 0 22 1;
#X connect 24 0 0 0;
#X connect 24 1 1 1;
#X connect 24 2 1 2;
#X coords 0 -1 1 1 200 100 1 100 100;
#X restore 1053 419 pd make-midi-poly 1;
#X obj 1005 44 rndm-smpl 16;
#X obj 1003 662 abltn-rsv;
#X connect 0 0 1 0;
#X connect 1 0 11 0;
#X connect 2 0 4 0;
#X connect 2 2 3 0;
#X connect 3 0 6 0;
#X connect 4 0 5 0;
#X connect 5 0 12 0;
#X connect 7 0 0 1;
#X connect 9 0 0 0;
#X connect 12 0 8 0;
#X connect 13 0 8 0;
#X connect 14 0 10 0;
